<svg xmlns="http://www.w3.org/2000/svg" viewBox="0 0 980 235" width="980" height="235">
<rect width="980" height="235" rx="14" fill="#1f1f1f"/>
<rect x="0.5" y="0.5" width="979" height="234" rx="14" fill="none" stroke="#303030"/>
<text x="24" y="30" fill="#f0f0f0" font-size="17" font-family="Arial, Helvetica, sans-serif"><tspan font-weight="700">93</tspan><tspan> submissions in the past one year</tspan></text>
<circle cx="390" cy="25" r="8" fill="none" stroke="#8b8b8b" stroke-width="1.4"/>
<text x="388" y="29" fill="#8b8b8b" font-size="10" font-family="Arial">i</text>
<text x="650" y="30" fill="#8b8b8b" font-size="13" font-family="Arial">Total active days: <tspan fill="#f0f0f0" font-weight="700">27</tspan></text>
<text x="800" y="30" fill="#8b8b8b" font-size="13" font-family="Arial">Max streak: <tspan fill="#f0f0f0" font-weight="700">17</tspan></text>
<rect x="888" y="48" width="68" height="30" rx="6" fill="#303030"/>
<text x="900" y="68" fill="#f0f0f0" font-size="12" font-family="Arial">Current</text>
<path d="M 939 60 l 5 5 l 5 -5" fill="none" stroke="#9b9b9b" stroke-width="1.4"/>
<text x="34" y="201" fill="#9b9b9b" font-size="11" font-family="Arial">Sep</text>
<text x="85" y="201" fill="#9b9b9b" font-size="11" font-family="Arial">Oct</text>
<text x="153" y="201" fill="#9b9b9b" font-size="11" font-family="Arial">Nov</text>
<text x="238" y="201" fill="#9b9b9b" font-size="11" font-family="Arial">Dec</text>
<text x="306" y="201" fill="#9b9b9b" font-size="11" font-family="Arial">Jan</text>
<text x="391" y="201" fill="#9b9b9b" font-size="11" font-family="Arial">Feb</text>
<text x="459" y="201" fill="#9b9b9b" font-size="11" font-family="Arial">Mar</text>
<text x="527" y="201" fill="#9b9b9b" font-size="11" font-family="Arial">Apr</text>
<text x="595" y="201" fill="#9b9b9b" font-size="11" font-family="Arial">May</text>
<text x="680" y="201" fill="#9b9b9b" font-size="11" font-family="Arial">Jun</text>
<text x="748" y="201" fill="#9b9b9b" font-size="11" font-family="Arial">Jul</text>
<text x="816" y="201" fill="#9b9b9b" font-size="11" font-family="Arial">Aug</text>
<text x="901" y="201" fill="#9b9b9b" font-size="11" font-family="Arial">Sep</text>
<rect x="34" y="99" width="13" height="13" rx="3" fill="#161b22"><title>0 submissions on Sep 9, 2025</title></rect>
<rect x="34" y="116" width="13" height="13" rx="3" fill="#161b22"><title>0 submissions on Sep 10, 2025</title></rect>
<rect x="34" y="133" width="13" height="13" rx="3" fill="#161b22"><title>0 submissions on Sep 11, 2025</title></rect>
<rect x="34" y="150" width="13" height="13" rx="3" fill="#161b22"><title>0 submissions on Sep 12, 2025</title></rect>
<rect x="34" y="167" width="13" height="13" rx="3" fill="#161b22"><title>0 submissions on Sep 13, 2025</title></rect>
<rect x="51" y="65" width="13" height="13" rx="3" fill="#161b22"><title>0 submissions on Sep 14, 2025</title></rect>
<rect x="51" y="82" width="13" height="13" rx="3" fill="#161b22"><title>0 submissions on Sep 15, 2025</title></rect>
<rect x="51" y="99" width="13" height="13" rx="3" fill="#161b22"><title>0 submissions on Sep 16, 2025</title></rect>
<rect x="51" y="116" width="13" height="13" rx="3" fill="#161b22"><title>0 submissions on Sep 17, 2025</title></rect>
<rect x="51" y="133" width="13" height="13" rx="3" fill="#161b22"><title>0 submissions on Sep 18, 2025</title></rect>
<rect x="51" y="150" width="13" height="13" rx="3" fill="#161b22"><title>0 submissions on Sep 19, 2025</title></rect>
<rect x="51" y="167" width="13" height="13" rx="3" fill="#161b22"><title>0 submissions on Sep 20, 2025</title></rect>
<rect x="68" y="65" width="13" height="13" rx="3" fill="#161b22"><title>0 submissions on Sep 21, 2025</title></rect>
<rect x="68" y="82" width="13" height="13" rx="3" fill="#161b22"><title>0 submissions on Sep 22, 2025</title></rect>
<rect x="68" y="99" width="13" height="13" rx="3" fill="#161b22"><title>0 submissions on Sep 23, 2025</title></rect>
<rect x="68" y="116" width="13" height="13" rx="3" fill="#161b22"><title>0 submissions on Sep 24, 2025</title></rect>
<rect x="68" y="133" width="13" height="13" rx="3" fill="#161b22"><title>0 submissions on Sep 25, 2025</title></rect>
<rect x="68" y="150" width="13" height="13" rx="3" fill="#161b22"><title>0 submissions on Sep 26, 2025</title></rect>
<rect x="68" y="167" width="13" height="13" rx="3" fill="#161b22"><title>0 submissions on Sep 27, 2025</title></rect>
<rect x="85" y="65" width="13" height="13" rx="3" fill="#161b22"><title>0 submissions on Sep 28, 2025</title></rect>
<rect x="85" y="82" width="13" height="13" rx="3" fill="#161b22"><title>0 submissions on Sep 29, 2025</title></rect>
<rect x="85" y="99" width="13" height="13" rx="3" fill="#161b22"><title>0 submissions on Sep 30, 2025</title></rect>
<rect x="85" y="116" width="13" height="13" rx="3" fill="#161b22"><title>0 submissions on Oct 1, 2025</title></rect>
<rect x="85" y="133" width="13" height="13" rx="3" fill="#161b22"><title>0 submissions on Oct 2, 2025</title></rect>
<rect x="85" y="150" width="13" height="13" rx="3" fill="#161b22"><title>0 submissions on Oct 3, 2025</title></rect>
<rect x="85" y="167" width="13" height="13" rx="3" fill="#161b22"><title>0 submissions on Oct 4, 2025</title></rect>
<rect x="102" y="65" width="13" height="13" rx="3" fill="#161b22"><title>0 submissions on Oct 5, 2025</title></rect>
<rect x="102" y="82" width="13" height="13" rx="3" fill="#161b22"><title>0 submissions on Oct 6, 2025</title></rect>
<rect x="102" y="99" width="13" height="13" rx="3" fill="#161b22"><title>0 submissions on Oct 7, 2025</title></rect>
<rect x="102" y="116" width="13" height="13" rx="3" fill="#161b22"><title>0 submissions on Oct 8, 2025</title></rect>
<rect x="102" y="133" width="13" height="13" rx="3" fill="#161b22"><title>0 submissions on Oct 9, 2025</title></rect>
<rect x="102" y="150" width="13" height="13" rx="3" fill="#161b22"><title>0 submissions on Oct 10, 2025</title></rect>
<rect x="102" y="167" width="13" height="13" rx="3" fill="#161b22"><title>0 submissions on Oct 11, 2025</title></rect>
<rect x="119" y="65" width="13" height="13" rx="3" fill="#161b22"><title>0 submissions on Oct 12, 2025</title></rect>
<rect x="119" y="82" width="13" height="13" rx="3" fill="#161b22"><title>0 submissions on Oct 13, 2025</title></rect>
<rect x="119" y="99" width="13" height="13" rx="3" fill="#161b22"><title>0 submissions on Oct 14, 2025</title></rect>
<rect x="119" y="116" width="13" height="13" rx="3" fill="#161b22"><title>0 submissions on Oct 15, 2025</title></rect>
<rect x="119" y="133" width="13" height="13" rx="3" fill="#161b22"><title>0 submissions on Oct 16, 2025</title></rect>
<rect x="119" y="150" width="13" height="13" rx="3" fill="#161b22"><title>0 submissions on Oct 17, 2025</title></rect>
<rect x="119" y="167" width="13" height="13" rx="3" fill="#161b22"><title>0 submissions on Oct 18, 2025</title></rect>
<rect x="136" y="65" width="13" height="13" rx="3" fill="#161b22"><title>0 submissions on Oct 19, 2025</title></rect>
<rect x="136" y="82" width="13" height="13" rx="3" fill="#161b22"><title>0 submissions on Oct 20, 2025</title></rect>
<rect x="136" y="99" width="13" height="13" rx="3" fill="#161b22"><title>0 submissions on Oct 21, 2025</title></rect>
<rect x="136" y="116" width="13" height="13" rx="3" fill="#161b22"><title>0 submissions on Oct 22, 2025</title></rect>
<rect x="136" y="133" width="13" height="13" rx="3" fill="#161b22"><title>0 submissions on Oct 23, 2025</title></rect>
<rect x="136" y="150" width="13" height="13" rx="3" fill="#161b22"><title>0 submissions on Oct 24, 2025</title></rect>
<rect x="136" y="167" width="13" height="13" rx="3" fill="#161b22"><title>0 submissions on Oct 25, 2025</title></rect>
<rect x="153" y="65" width="13" height="13" rx="3" fill="#161b22"><title>0 submissions on Oct 26, 2025</title></rect>
<rect x="153" y="82" width="13" height="13" rx="3" fill="#161b22"><title>0 submissions on Oct 27, 2025</title></rect>
<rect x="153" y="99" width="13" height="13" rx="3" fill="#161b22"><title>0 submissions on Oct 28, 2025</title></rect>
<rect x="153" y="116" width="13" height="13" rx="3" fill="#161b22"><title>0 submissions on Oct 29, 2025</title></rect>
<rect x="153" y="133" width="13" height="13" rx="3" fill="#161b22"><title>0 submissions on Oct 30, 2025</title></rect>
<rect x="153" y="150" width="13" height="13" rx="3" fill="#161b22"><title>0 submissions on Oct 31, 2025</title></rect>
<rect x="153" y="167" width="13" height="13" rx="3" fill="#161b22"><title>0 submissions on Nov 1, 2025</title></rect>
<rect x="170" y="65" width="13" height="13" rx="3" fill="#161b22"><title>0 submissions on Nov 2, 2025</title></rect>
<rect x="170" y="82" width="13" height="13" rx="3" fill="#161b22"><title>0 submissions on Nov 3, 2025</title></rect>
<rect x="170" y="99" width="13" height="13" rx="3" fill="#161b22"><title>0 submissions on Nov 4, 2025</title></rect>
<rect x="170" y="116" width="13" height="13" rx="3" fill="#161b22"><title>0 submissions on Nov 5, 2025</title></rect>
<rect x="170" y="133" width="13" height="13" rx="3" fill="#161b22"><title>0 submissions on Nov 6, 2025</title></rect>
<rect x="170" y="150" width="13" height="13" rx="3" fill="#161b22"><title>0 submissions on Nov 7, 2025</title></rect>
<rect x="170" y="167" width="13" height="13" rx="3" fill="#161b22"><title>0 submissions on Nov 8, 2025</title></rect>
<rect x="187" y="65" width="13" height="13" rx="3" fill="#161b22"><title>0 submissions on Nov 9, 2025</title></rect>
<rect x="187" y="82" width="13" height="13" rx="3" fill="#161b22"><title>0 submissions on Nov 10, 2025</title></rect>
<rect x="187" y="99" width="13" height="13" rx="3" fill="#161b22"><title>0 submissions on Nov 11, 2025</title></rect>
<rect x="187" y="116" width="13" height="13" rx="3" fill="#161b22"><title>0 submissions on Nov 12, 2025</title></rect>
<rect x="187" y="133" width="13" height="13" rx="3" fill="#161b22"><title>0 submissions on Nov 13, 2025</title></rect>
<rect x="187" y="150" width="13" height="13" rx="3" fill="#161b22"><title>0 submissions on Nov 14, 2025</title></rect>
<rect x="187" y="167" width="13" height="13" rx="3" fill="#161b22"><title>0 submissions on Nov 15, 2025</title></rect>
<rect x="204" y="65" width="13" height="13" rx="3" fill="#161b22"><title>0 submissions on Nov 16, 2025</title></rect>
<rect x="204" y="82" width="13" height="13" rx="3" fill="#161b22"><title>0 submissions on Nov 17, 2025</title></rect>
<rect x="204" y="99" width="13" height="13" rx="3" fill="#161b22"><title>0 submissions on Nov 18, 2025</title></rect>
<rect x="204" y="116" width="13" height="13" rx="3" fill="#161b22"><title>0 submissions on Nov 19, 2025</title></rect>
<rect x="204" y="133" width="13" height="13" rx="3" fill="#161b22"><title>0 submissions on Nov 20, 2025</title></rect>
<rect x="204" y="150" width="13" height="13" rx="3" fill="#161b22"><title>0 submissions on Nov 21, 2025</title></rect>
<rect x="204" y="167" width="13" height="13" rx="3" fill="#161b22"><title>0 submissions on Nov 22, 2025</title></rect>
<rect x="221" y="65" width="13" height="13" rx="3" fill="#161b22"><title>0 submissions on Nov 23, 2025</title></rect>
<rect x="221" y="82" width="13" height="13" rx="3" fill="#161b22"><title>0 submissions on Nov 24, 2025</title></rect>
<rect x="221" y="99" width="13" height="13" rx="3" fill="#161b22"><title>0 submissions on Nov 25, 2025</title></rect>
<rect x="221" y="116" width="13" height="13" rx="3" fill="#161b22"><title>0 submissions on Nov 26, 2025</title></rect>
<rect x="221" y="133" width="13" height="13" rx="3" fill="#161b22"><title>0 submissions on Nov 27, 2025</title></rect>
<rect x="221" y="150" width="13" height="13" rx="3" fill="#161b22"><title>0 submissions on Nov 28, 2025</title></rect>
<rect x="221" y="167" width="13" height="13" rx="3" fill="#161b22"><title>0 submissions on Nov 29, 2025</title></rect>
<rect x="238" y="65" width="13" height="13" rx="3" fill="#161b22"><title>0 submissions on Nov 30, 2025</title></rect>
<rect x="238" y="82" width="13" height="13" rx="3" fill="#161b22"><title>0 submissions on Dec 1, 2025</title></rect>
<rect x="238" y="99" width="13" height="13" rx="3" fill="#161b22"><title>0 submissions on Dec 2, 2025</title></rect>
<rect x="238" y="116" width="13" height="13" rx="3" fill="#161b22"><title>0 submissions on Dec 3, 2025</title></rect>
<rect x="238" y="133" width="13" height="13" rx="3" fill="#161b22"><title>0 submissions on Dec 4, 2025</title></rect>
<rect x="238" y="150" width="13" height="13" rx="3" fill="#161b22"><title>0 submissions on Dec 5, 2025</title></rect>
<rect x="238" y="167" width="13" height="13" rx="3" fill="#161b22"><title>0 submissions on Dec 6, 2025</title></rect>
<rect x="255" y="65" width="13" height="13" rx="3" fill="#161b22"><title>0 submissions on Dec 7, 2025</title></rect>
<rect x="255" y="82" width="13" height="13" rx="3" fill="#161b22"><title>0 submissions on Dec 8, 2025</title></rect>
<rect x="255" y="99" width="13" height="13" rx="3" fill="#161b22"><title>0 submissions on Dec 9, 2025</title></rect>
<rect x="255" y="116" width="13" height="13" rx="3" fill="#161b22"><title>0 submissions on Dec 10, 2025</title></rect>
<rect x="255" y="133" width="13" height="13" rx="3" fill="#161b22"><title>0 submissions on Dec 11, 2025</title></rect>
<rect x="255" y="150" width="13" height="13" rx="3" fill="#161b22"><title>0 submissions on Dec 12, 2025</title></rect>
<rect x="255" y="167" width="13" height="13" rx="3" fill="#161b22"><title>0 submissions on Dec 13, 2025</title></rect>
<rect x="272" y="65" width="13" height="13" rx="3" fill="#161b22"><title>0 submissions on Dec 14, 2025</title></rect>
<rect x="272" y="82" width="13" height="13" rx="3" fill="#161b22"><title>0 submissions on Dec 15, 2025</title></rect>
<rect x="272" y="99" width="13" height="13" rx="3" fill="#161b22"><title>0 submissions on Dec 16, 2025</title></rect>
<rect x="272" y="116" width="13" height="13" rx="3" fill="#161b22"><title>0 submissions on Dec 17, 2025</title></rect>
<rect x="272" y="133" width="13" height="13" rx="3" fill="#161b22"><title>0 submissions on Dec 18, 2025</title></rect>
<rect x="272" y="150" width="13" height="13" rx="3" fill="#161b22"><title>0 submissions on Dec 19, 2025</title></rect>
<rect x="272" y="167" width="13" height="13" rx="3" fill="#161b22"><title>0 submissions on Dec 20, 2025</title></rect>
<rect x="289" y="65" width="13" height="13" rx="3" fill="#161b22"><title>0 submissions on Dec 21, 2025</title></rect>
<rect x="289" y="82" width="13" height="13" rx="3" fill="#161b22"><title>0 submissions on Dec 22, 2025</title></rect>
<rect x="289" y="99" width="13" height="13" rx="3" fill="#161b22"><title>0 submissions on Dec 23, 2025</title></rect>
<rect x="289" y="116" width="13" height="13" rx="3" fill="#161b22"><title>0 submissions on Dec 24, 2025</title></rect>
<rect x="289" y="133" width="13" height="13" rx="3" fill="#161b22"><title>0 submissions on Dec 25, 2025</title></rect>
<rect x="289" y="150" width="13" height="13" rx="3" fill="#161b22"><title>0 submissions on Dec 26, 2025</title></rect>
<rect x="289" y="167" width="13" height="13" rx="3" fill="#161b22"><title>0 submissions on Dec 27, 2025</title></rect>
<rect x="306" y="65" width="13" height="13" rx="3" fill="#161b22"><title>0 submissions on Dec 28, 2025</title></rect>
<rect x="306" y="82" width="13" height="13" rx="3" fill="#161b22"><title>0 submissions on Dec 29, 2025</title></rect>
<rect x="306" y="99" width="13" height="13" rx="3" fill="#161b22"><title>0 submissions on Dec 30, 2025</title></rect>
<rect x="306" y="116" width="13" height="13" rx="3" fill="#161b22"><title>0 submissions on Dec 31, 2025</title></rect>
<rect x="306" y="133" width="13" height="13" rx="3" fill="#161b22"><title>0 submissions on Jan 1, 2026</title></rect>
<rect x="306" y="150" width="13" height="13" rx="3" fill="#161b22"><title>0 submissions on Jan 2, 2026</title></rect>
<rect x="306" y="167" width="13" height="13" rx="3" fill="#161b22"><title>0 submissions on Jan 3, 2026</title></rect>
<rect x="323" y="65" width="13" height="13" rx="3" fill="#161b22"><title>0 submissions on Jan 4, 2026</title></rect>
<rect x="323" y="82" width="13" height="13" rx="3" fill="#161b22"><title>0 submissions on Jan 5, 2026</title></rect>
<rect x="323" y="99" width="13" height="13" rx="3" fill="#161b22"><title>0 submissions on Jan 6, 2026</title></rect>
<rect x="323" y="116" width="13" height="13" rx="3" fill="#161b22"><title>0 submissions on Jan 7, 2026</title></rect>
<rect x="323" y="133" width="13" height="13" rx="3" fill="#161b22"><title>0 submissions on Jan 8, 2026</title></rect>
<rect x="323" y="150" width="13" height="13" rx="3" fill="#161b22"><title>0 submissions on Jan 9, 2026</title></rect>
<rect x="323" y="167" width="13" height="13" rx="3" fill="#161b22"><title>0 submissions on Jan 10, 2026</title></rect>
<rect x="340" y="65" width="13" height="13" rx="3" fill="#161b22"><title>0 submissions on Jan 11, 2026</title></rect>
<rect x="340" y="82" width="13" height="13" rx="3" fill="#161b22"><title>0 submissions on Jan 12, 2026</title></rect>
<rect x="340" y="99" width="13" height="13" rx="3" fill="#161b22"><title>0 submissions on Jan 13, 2026</title></rect>
<rect x="340" y="116" width="13" height="13" rx="3" fill="#161b22"><title>0 submissions on Jan 14, 2026</title></rect>
<rect x="340" y="133" width="13" height="13" rx="3" fill="#161b22"><title>0 submissions on Jan 15, 2026</title></rect>
<rect x="340" y="150" width="13" height="13" rx="3" fill="#161b22"><title>0 submissions on Jan 16, 2026</title></rect>
<rect x="340" y="167" width="13" height="13" rx="3" fill="#161b22"><title>0 submissions on Jan 17, 2026</title></rect>
<rect x="357" y="65" width="13" height="13" rx="3" fill="#161b22"><title>0 submissions on Jan 18, 2026</title></rect>
<rect x="357" y="82" width="13" height="13" rx="3" fill="#161b22"><title>0 submissions on Jan 19, 2026</title></rect>
<rect x="357" y="99" width="13" height="13" rx="3" fill="#161b22"><title>0 submissions on Jan 20, 2026</title></rect>
<rect x="357" y="116" width="13" height="13" rx="3" fill="#161b22"><title>0 submissions on Jan 21, 2026</title></rect>
<rect x="357" y="133" width="13" height="13" rx="3" fill="#161b22"><title>0 submissions on Jan 22, 2026</title></rect>
<rect x="357" y="150" width="13" height="13" rx="3" fill="#161b22"><title>0 submissions on Jan 23, 2026</title></rect>
<rect x="357" y="167" width="13" height="13" rx="3" fill="#161b22"><title>0 submissions on Jan 24, 2026</title></rect>
<rect x="374" y="65" width="13" height="13" rx="3" fill="#161b22"><title>0 submissions on Jan 25, 2026</title></rect>
<rect x="374" y="82" width="13" height="13" rx="3" fill="#161b22"><title>0 submissions on Jan 26, 2026</title></rect>
<rect x="374" y="99" width="13" height="13" rx="3" fill="#161b22"><title>0 submissions on Jan 27, 2026</title></rect>
<rect x="374" y="116" width="13" height="13" rx="3" fill="#161b22"><title>0 submissions on Jan 28, 2026</title></rect>
<rect x="374" y="133" width="13" height="13" rx="3" fill="#161b22"><title>0 submissions on Jan 29, 2026</title></rect>
<rect x="374" y="150" width="13" height="13" rx="3" fill="#161b22"><title>0 submissions on Jan 30, 2026</title></rect>
<rect x="374" y="167" width="13" height="13" rx="3" fill="#161b22"><title>0 submissions on Jan 31, 2026</title></rect>
<rect x="391" y="65" width="13" height="13" rx="3" fill="#161b22"><title>0 submissions on Feb 1, 2026</title></rect>
<rect x="391" y="82" width="13" height="13" rx="3" fill="#161b22"><title>0 submissions on Feb 2, 2026</title></rect>
<rect x="391" y="99" width="13" height="13" rx="3" fill="#161b22"><title>0 submissions on Feb 3, 2026</title></rect>
<rect x="391" y="116" width="13" height="13" rx="3" fill="#161b22"><title>0 submissions on Feb 4, 2026</title></rect>
<rect x="391" y="133" width="13" height="13" rx="3" fill="#161b22"><title>0 submissions on Feb 5, 2026</title></rect>
<rect x="391" y="150" width="13" height="13" rx="3" fill="#161b22"><title>0 submissions on Feb 6, 2026</title></rect>
<rect x="391" y="167" width="13" height="13" rx="3" fill="#161b22"><title>0 submissions on Feb 7, 2026</title></rect>
<rect x="408" y="65" width="13" height="13" rx="3" fill="#161b22"><title>0 submissions on Feb 8, 2026</title></rect>
<rect x="408" y="82" width="13" height="13" rx="3" fill="#161b22"><title>0 submissions on Feb 9, 2026</title></rect>
<rect x="408" y="99" width="13" height="13" rx="3" fill="#161b22"><title>0 submissions on Feb 10, 2026</title></rect>
<rect x="408" y="116" width="13" height="13" rx="3" fill="#161b22"><title>0 submissions on Feb 11, 2026</title></rect>
<rect x="408" y="133" width="13" height="13" rx="3" fill="#161b22"><title>0 submissions on Feb 12, 2026</title></rect>
<rect x="408" y="150" width="13" height="13" rx="3" fill="#161b22"><title>0 submissions on Feb 13, 2026</title></rect>
<rect x="408" y="167" width="13" height="13" rx="3" fill="#161b22"><title>0 submissions on Feb 14, 2026</title></rect>
<rect x="425" y="65" width="13" height="13" rx="3" fill="#161b22"><title>0 submissions on Feb 15, 2026</title></rect>
<rect x="425" y="82" width="13" height="13" rx="3" fill="#161b22"><title>0 submissions on Feb 16, 2026</title></rect>
<rect x="425" y="99" width="13" height="13" rx="3" fill="#161b22"><title>0 submissions on Feb 17, 2026</title></rect>
<rect x="425" y="116" width="13" height="13" rx="3" fill="#161b22"><title>0 submissions on Feb 18, 2026</title></rect>
<rect x="425" y="133" width="13" height="13" rx="3" fill="#161b22"><title>0 submissions on Feb 19, 2026</title></rect>
<rect x="425" y="150" width="13" height="13" rx="3" fill="#161b22"><title>0 submissions on Feb 20, 2026</title></rect>
<rect x="425" y="167" width="13" height="13" rx="3" fill="#161b22"><title>0 submissions on Feb 21, 2026</title></rect>
<rect x="442" y="65" width="13" height="13" rx="3" fill="#161b22"><title>0 submissions on Feb 22, 2026</title></rect>
<rect x="442" y="82" width="13" height="13" rx="3" fill="#161b22"><title>0 submissions on Feb 23, 2026</title></rect>
<rect x="442" y="99" width="13" height="13" rx="3" fill="#161b22"><title>0 submissions on Feb 24, 2026</title></rect>
<rect x="442" y="116" width="13" height="13" rx="3" fill="#161b22"><title>0 submissions on Feb 25, 2026</title></rect>
<rect x="442" y="133" width="13" height="13" rx="3" fill="#161b22"><title>0 submissions on Feb 26, 2026</title></rect>
<rect x="442" y="150" width="13" height="13" rx="3" fill="#161b22"><title>0 submissions on Feb 27, 2026</title></rect>
<rect x="442" y="167" width="13" height="13" rx="3" fill="#161b22"><title>0 submissions on Feb 28, 2026</title></rect>
<rect x="459" y="65" width="13" height="13" rx="3" fill="#161b22"><title>0 submissions on Mar 1, 2026</title></rect>
<rect x="459" y="82" width="13" height="13" rx="3" fill="#161b22"><title>0 submissions on Mar 2, 2026</title></rect>
<rect x="459" y="99" width="13" height="13" rx="3" fill="#161b22"><title>0 submissions on Mar 3, 2026</title></rect>
<rect x="459" y="116" width="13" height="13" rx="3" fill="#161b22"><title>0 submissions on Mar 4, 2026</title></rect>
<rect x="459" y="133" width="13" height="13" rx="3" fill="#161b22"><title>0 submissions on Mar 5, 2026</title></rect>
<rect x="459" y="150" width="13" height="13" rx="3" fill="#161b22"><title>0 submissions on Mar 6, 2026</title></rect>
<rect x="459" y="167" width="13" height="13" rx="3" fill="#161b22"><title>0 submissions on Mar 7, 2026</title></rect>
<rect x="476" y="65" width="13" height="13" rx="3" fill="#161b22"><title>0 submissions on Mar 8, 2026</title></rect>
<rect x="476" y="82" width="13" height="13" rx="3" fill="#161b22"><title>0 submissions on Mar 9, 2026</title></rect>
<rect x="476" y="99" width="13" height="13" rx="3" fill="#161b22"><title>0 submissions on Mar 10, 2026</title></rect>
<rect x="476" y="116" width="13" height="13" rx="3" fill="#161b22"><title>0 submissions on Mar 11, 2026</title></rect>
<rect x="476" y="133" width="13" height="13" rx="3" fill="#161b22"><title>0 submissions on Mar 12, 2026</title></rect>
<rect x="476" y="150" width="13" height="13" rx="3" fill="#161b22"><title>0 submissions on Mar 13, 2026</title></rect>
<rect x="476" y="167" width="13" height="13" rx="3" fill="#161b22"><title>0 submissions on Mar 14, 2026</title></rect>
<rect x="493" y="65" width="13" height="13" rx="3" fill="#161b22"><title>0 submissions on Mar 15, 2026</title></rect>
<rect x="493" y="82" width="13" height="13" rx="3" fill="#161b22"><title>0 submissions on Mar 16, 2026</title></rect>
<rect x="493" y="99" width="13" height="13" rx="3" fill="#161b22"><title>0 submissions on Mar 17, 2026</title></rect>
<rect x="493" y="116" width="13" height="13" rx="3" fill="#161b22"><title>0 submissions on Mar 18, 2026</title></rect>
<rect x="493" y="133" width="13" height="13" rx="3" fill="#161b22"><title>0 submissions on Mar 19, 2026</title></rect>
<rect x="493" y="150" width="13" height="13" rx="3" fill="#161b22"><title>0 submissions on Mar 20, 2026</title></rect>
<rect x="493" y="167" width="13" height="13" rx="3" fill="#161b22"><title>0 submissions on Mar 21, 2026</title></rect>
<rect x="510" y="65" width="13" height="13" rx="3" fill="#161b22"><title>0 submissions on Mar 22, 2026</title></rect>
<rect x="510" y="82" width="13" height="13" rx="3" fill="#161b22"><title>0 submissions on Mar 23, 2026</title></rect>
<rect x="510" y="99" width="13" height="13" rx="3" fill="#161b22"><title>0 submissions on Mar 24, 2026</title></rect>
<rect x="510" y="116" width="13" height="13" rx="3" fill="#161b22"><title>0 submissions on Mar 25, 2026</title></rect>
<rect x="510" y="133" width="13" height="13" rx="3" fill="#161b22"><title>0 submissions on Mar 26, 2026</title></rect>
<rect x="510" y="150" width="13" height="13" rx="3" fill="#161b22"><title>0 submissions on Mar 27, 2026</title></rect>
<rect x="510" y="167" width="13" height="13" rx="3" fill="#161b22"><title>0 submissions on Mar 28, 2026</title></rect>
<rect x="527" y="65" width="13" height="13" rx="3" fill="#161b22"><title>0 submissions on Mar 29, 2026</title></rect>
<rect x="527" y="82" width="13" height="13" rx="3" fill="#161b22"><title>0 submissions on Mar 30, 2026</title></rect>
<rect x="527" y="99" width="13" height="13" rx="3" fill="#161b22"><title>0 submissions on Mar 31, 2026</title></rect>
<rect x="527" y="116" width="13" height="13" rx="3" fill="#161b22"><title>0 submissions on Apr 1, 2026</title></rect>
<rect x="527" y="133" width="13" height="13" rx="3" fill="#161b22"><title>0 submissions on Apr 2, 2026</title></rect>
<rect x="527" y="150" width="13" height="13" rx="3" fill="#161b22"><title>0 submissions on Apr 3, 2026</title></rect>
<rect x="527" y="167" width="13" height="13" rx="3" fill="#161b22"><title>0 submissions on Apr 4, 2026</title></rect>
<rect x="544" y="65" width="13" height="13" rx="3" fill="#161b22"><title>0 submissions on Apr 5, 2026</title></rect>
<rect x="544" y="82" width="13" height="13" rx="3" fill="#161b22"><title>0 submissions on Apr 6, 2026</title></rect>
<rect x="544" y="99" width="13" height="13" rx="3" fill="#161b22"><title>0 submissions on Apr 7, 2026</title></rect>
<rect x="544" y="116" width="13" height="13" rx="3" fill="#161b22"><title>0 submissions on Apr 8, 2026</title></rect>
<rect x="544" y="133" width="13" height="13" rx="3" fill="#161b22"><title>0 submissions on Apr 9, 2026</title></rect>
<rect x="544" y="150" width="13" height="13" rx="3" fill="#161b22"><title>0 submissions on Apr 10, 2026</title></rect>
<rect x="544" y="167" width="13" height="13" rx="3" fill="#161b22"><title>0 submissions on Apr 11, 2026</title></rect>
<rect x="561" y="65" width="13" height="13" rx="3" fill="#161b22"><title>0 submissions on Apr 12, 2026</title></rect>
<rect x="561" y="82" width="13" height="13" rx="3" fill="#161b22"><title>0 submissions on Apr 13, 2026</title></rect>
<rect x="561" y="99" width="13" height="13" rx="3" fill="#161b22"><title>0 submissions on Apr 14, 2026</title></rect>
<rect x="561" y="116" width="13" height="13" rx="3" fill="#161b22"><title>0 submissions on Apr 15, 2026</title></rect>
<rect x="561" y="133" width="13" height="13" rx="3" fill="#161b22"><title>0 submissions on Apr 16, 2026</title></rect>
<rect x="561" y="150" width="13" height="13" rx="3" fill="#161b22"><title>0 submissions on Apr 17, 2026</title></rect>
<rect x="561" y="167" width="13" height="13" rx="3" fill="#161b22"><title>0 submissions on Apr 18, 2026</title></rect>
<rect x="578" y="65" width="13" height="13" rx="3" fill="#161b22"><title>0 submissions on Apr 19, 2026</title></rect>
<rect x="578" y="82" width="13" height="13" rx="3" fill="#161b22"><title>0 submissions on Apr 20, 2026</title></rect>
<rect x="578" y="99" width="13" height="13" rx="3" fill="#161b22"><title>0 submissions on Apr 21, 2026</title></rect>
<rect x="578" y="116" width="13" height="13" rx="3" fill="#161b22"><title>0 submissions on Apr 22, 2026</title></rect>
<rect x="578" y="133" width="13" height="13" rx="3" fill="#161b22"><title>0 submissions on Apr 23, 2026</title></rect>
<rect x="578" y="150" width="13" height="13" rx="3" fill="#161b22"><title>0 submissions on Apr 24, 2026</title></rect>
<rect x="578" y="167" width="13" height="13" rx="3" fill="#161b22"><title>0 submissions on Apr 25, 2026</title></rect>
<rect x="595" y="65" width="13" height="13" rx="3" fill="#161b22"><title>0 submissions on Apr 26, 2026</title></rect>
<rect x="595" y="82" width="13" height="13" rx="3" fill="#161b22"><title>0 submissions on Apr 27, 2026</title></rect>
<rect x="595" y="99" width="13" height="13" rx="3" fill="#161b22"><title>0 submissions on Apr 28, 2026</title></rect>
<rect x="595" y="116" width="13" height="13" rx="3" fill="#161b22"><title>0 submissions on Apr 29, 2026</title></rect>
<rect x="595" y="133" width="13" height="13" rx="3" fill="#161b22"><title>0 submissions on Apr 30, 2026</title></rect>
<rect x="595" y="150" width="13" height="13" rx="3" fill="#161b22"><title>0 submissions on May 1, 2026</title></rect>
<rect x="595" y="167" width="13" height="13" rx="3" fill="#161b22"><title>0 submissions on May 2, 2026</title></rect>
<rect x="612" y="65" width="13" height="13" rx="3" fill="#161b22"><title>0 submissions on May 3, 2026</title></rect>
<rect x="612" y="82" width="13" height="13" rx="3" fill="#161b22"><title>0 submissions on May 4, 2026</title></rect>
<rect x="612" y="99" width="13" height="13" rx="3" fill="#161b22"><title>0 submissions on May 5, 2026</title></rect>
<rect x="612" y="116" width="13" height="13" rx="3" fill="#161b22"><title>0 submissions on May 6, 2026</title></rect>
<rect x="612" y="133" width="13" height="13" rx="3" fill="#161b22"><title>0 submissions on May 7, 2026</title></rect>
<rect x="612" y="150" width="13" height="13" rx="3" fill="#161b22"><title>0 submissions on May 8, 2026</title></rect>
<rect x="612" y="167" width="13" height="13" rx="3" fill="#161b22"><title>0 submissions on May 9, 2026</title></rect>
<rect x="629" y="65" width="13" height="13" rx="3" fill="#161b22"><title>0 submissions on May 10, 2026</title></rect>
<rect x="629" y="82" width="13" height="13" rx="3" fill="#161b22"><title>0 submissions on May 11, 2026</title></rect>
<rect x="629" y="99" width="13" height="13" rx="3" fill="#161b22"><title>0 submissions on May 12, 2026</title></rect>
<rect x="629" y="116" width="13" height="13" rx="3" fill="#161b22"><title>0 submissions on May 13, 2026</title></rect>
<rect x="629" y="133" width="13" height="13" rx="3" fill="#161b22"><title>0 submissions on May 14, 2026</title></rect>
<rect x="629" y="150" width="13" height="13" rx="3" fill="#161b22"><title>0 submissions on May 15, 2026</title></rect>
<rect x="629" y="167" width="13" height="13" rx="3" fill="#161b22"><title>0 submissions on May 16, 2026</title></rect>
<rect x="646" y="65" width="13" height="13" rx="3" fill="#161b22"><title>0 submissions on May 17, 2026</title></rect>
<rect x="646" y="82" width="13" height="13" rx="3" fill="#161b22"><title>0 submissions on May 18, 2026</title></rect>
<rect x="646" y="99" width="13" height="13" rx="3" fill="#161b22"><title>0 submissions on May 19, 2026</title></rect>
<rect x="646" y="116" width="13" height="13" rx="3" fill="#161b22"><title>0 submissions on May 20, 2026</title></rect>
<rect x="646" y="133" width="13" height="13" rx="3" fill="#161b22"><title>0 submissions on May 21, 2026</title></rect>
<rect x="646" y="150" width="13" height="13" rx="3" fill="#161b22"><title>0 submissions on May 22, 2026</title></rect>
<rect x="646" y="167" width="13" height="13" rx="3" fill="#161b22"><title>0 submissions on May 23, 2026</title></rect>
<rect x="663" y="65" width="13" height="13" rx="3" fill="#161b22"><title>0 submissions on May 24, 2026</title></rect>
<rect x="663" y="82" width="13" height="13" rx="3" fill="#161b22"><title>0 submissions on May 25, 2026</title></rect>
<rect x="663" y="99" width="13" height="13" rx="3" fill="#161b22"><title>0 submissions on May 26, 2026</title></rect>
<rect x="663" y="116" width="13" height="13" rx="3" fill="#161b22"><title>0 submissions on May 27, 2026</title></rect>
<rect x="663" y="133" width="13" height="13" rx="3" fill="#161b22"><title>0 submissions on May 28, 2026</title></rect>
<rect x="663" y="150" width="13" height="13" rx="3" fill="#161b22"><title>0 submissions on May 29, 2026</title></rect>
<rect x="663" y="167" width="13" height="13" rx="3" fill="#161b22"><title>0 submissions on May 30, 2026</title></rect>
<rect x="680" y="65" width="13" height="13" rx="3" fill="#161b22"><title>0 submissions on May 31, 2026</title></rect>
<rect x="680" y="82" width="13" height="13" rx="3" fill="#161b22"><title>0 submissions on Jun 1, 2026</title></rect>
<rect x="680" y="99" width="13" height="13" rx="3" fill="#161b22"><title>0 submissions on Jun 2, 2026</title></rect>
<rect x="680" y="116" width="13" height="13" rx="3" fill="#161b22"><title>0 submissions on Jun 3, 2026</title></rect>
<rect x="680" y="133" width="13" height="13" rx="3" fill="#161b22"><title>0 submissions on Jun 4, 2026</title></rect>
<rect x="680" y="150" width="13" height="13" rx="3" fill="#161b22"><title>0 submissions on Jun 5, 2026</title></rect>
<rect x="680" y="167" width="13" height="13" rx="3" fill="#161b22"><title>0 submissions on Jun 6, 2026</title></rect>
<rect x="697" y="65" width="13" height="13" rx="3" fill="#161b22"><title>0 submissions on Jun 7, 2026</title></rect>
<rect x="697" y="82" width="13" height="13" rx="3" fill="#161b22"><title>0 submissions on Jun 8, 2026</title></rect>
<rect x="697" y="99" width="13" height="13" rx="3" fill="#161b22"><title>0 submissions on Jun 9, 2026</title></rect>
<rect x="697" y="116" width="13" height="13" rx="3" fill="#161b22"><title>0 submissions on Jun 10, 2026</title></rect>
<rect x="697" y="133" width="13" height="13" rx="3" fill="#161b22"><title>0 submissions on Jun 11, 2026</title></rect>
<rect x="697" y="150" width="13" height="13" rx="3" fill="#161b22"><title>0 submissions on Jun 12, 2026</title></rect>
<rect x="697" y="167" width="13" height="13" rx="3" fill="#161b22"><title>0 submissions on Jun 13, 2026</title></rect>
<rect x="714" y="65" width="13" height="13" rx="3" fill="#161b22"><title>0 submissions on Jun 14, 2026</title></rect>
<rect x="714" y="82" width="13" height="13" rx="3" fill="#161b22"><title>0 submissions on Jun 15, 2026</title></rect>
<rect x="714" y="99" width="13" height="13" rx="3" fill="#161b22"><title>0 submissions on Jun 16, 2026</title></rect>
<rect x="714" y="116" width="13" height="13" rx="3" fill="#161b22"><title>0 submissions on Jun 17, 2026</title></rect>
<rect x="714" y="133" width="13" height="13" rx="3" fill="#161b22"><title>0 submissions on Jun 18, 2026</title></rect>
<rect x="714" y="150" width="13" height="13" rx="3" fill="#161b22"><title>0 submissions on Jun 19, 2026</title></rect>
<rect x="714" y="167" width="13" height="13" rx="3" fill="#161b22"><title>0 submissions on Jun 20, 2026</title></rect>
<rect x="731" y="65" width="13" height="13" rx="3" fill="#161b22"><title>0 submissions on Jun 21, 2026</title></rect>
<rect x="731" y="82" width="13" height="13" rx="3" fill="#161b22"><title>0 submissions on Jun 22, 2026</title></rect>
<rect x="731" y="99" width="13" height="13" rx="3" fill="#161b22"><title>0 submissions on Jun 23, 2026</title></rect>
<rect x="731" y="116" width="13" height="13" rx="3" fill="#161b22"><title>0 submissions on Jun 24, 2026</title></rect>
<rect x="731" y="133" width="13" height="13" rx="3" fill="#161b22"><title>0 submissions on Jun 25, 2026</title></rect>
<rect x="731" y="150" width="13" height="13" rx="3" fill="#161b22"><title>0 submissions on Jun 26, 2026</title></rect>
<rect x="731" y="167" width="13" height="13" rx="3" fill="#161b22"><title>0 submissions on Jun 27, 2026</title></rect>
<rect x="748" y="65" width="13" height="13" rx="3" fill="#161b22"><title>0 submissions on Jun 28, 2026</title></rect>
<rect x="748" y="82" width="13" height="13" rx="3" fill="#161b22"><title>0 submissions on Jun 29, 2026</title></rect>
<rect x="748" y="99" width="13" height="13" rx="3" fill="#161b22"><title>0 submissions on Jun 30, 2026</title></rect>
<rect x="748" y="116" width="13" height="13" rx="3" fill="#161b22"><title>0 submissions on Jul 1, 2026</title></rect>
<rect x="748" y="133" width="13" height="13" rx="3" fill="#161b22"><title>0 submissions on Jul 2, 2026</title></rect>
<rect x="748" y="150" width="13" height="13" rx="3" fill="#161b22"><title>0 submissions on Jul 3, 2026</title></rect>
<rect x="748" y="167" width="13" height="13" rx="3" fill="#161b22"><title>0 submissions on Jul 4, 2026</title></rect>
<rect x="765" y="65" width="13" height="13" rx="3" fill="#161b22"><title>0 submissions on Jul 5, 2026</title></rect>
<rect x="765" y="82" width="13" height="13" rx="3" fill="#161b22"><title>0 submissions on Jul 6, 2026</title></rect>
<rect x="765" y="99" width="13" height="13" rx="3" fill="#161b22"><title>0 submissions on Jul 7, 2026</title></rect>
<rect x="765" y="116" width="13" height="13" rx="3" fill="#161b22"><title>0 submissions on Jul 8, 2026</title></rect>
<rect x="765" y="133" width="13" height="13" rx="3" fill="#161b22"><title>0 submissions on Jul 9, 2026</title></rect>
<rect x="765" y="150" width="13" height="13" rx="3" fill="#161b22"><title>0 submissions on Jul 10, 2026</title></rect>
<rect x="765" y="167" width="13" height="13" rx="3" fill="#161b22"><title>0 submissions on Jul 11, 2026</title></rect>
<rect x="782" y="65" width="13" height="13" rx="3" fill="#161b22"><title>0 submissions on Jul 12, 2026</title></rect>
<rect x="782" y="82" width="13" height="13" rx="3" fill="#161b22"><title>0 submissions on Jul 13, 2026</title></rect>
<rect x="782" y="99" width="13" height="13" rx="3" fill="#161b22"><title>0 submissions on Jul 14, 2026</title></rect>
<rect x="782" y="116" width="13" height="13" rx="3" fill="#161b22"><title>0 submissions on Jul 15, 2026</title></rect>
<rect x="782" y="133" width="13" height="13" rx="3" fill="#0e4429"><title>2 submissions on Jul 16, 2026</title></rect>
<rect x="782" y="150" width="13" height="13" rx="3" fill="#161b22"><title>0 submissions on Jul 17, 2026</title></rect>
<rect x="782" y="167" width="13" height="13" rx="3" fill="#161b22"><title>0 submissions on Jul 18, 2026</title></rect>
<rect x="799" y="65" width="13" height="13" rx="3" fill="#161b22"><title>0 submissions on Jul 19, 2026</title></rect>
<rect x="799" y="82" width="13" height="13" rx="3" fill="#0e4429"><title>1 submission on Jul 20, 2026</title></rect>
<rect x="799" y="99" width="13" height="13" rx="3" fill="#161b22"><title>0 submissions on Jul 21, 2026</title></rect>
<rect x="799" y="116" width="13" height="13" rx="3" fill="#006d32"><title>5 submissions on Jul 22, 2026</title></rect>
<rect x="799" y="133" width="13" height="13" rx="3" fill="#161b22"><title>0 submissions on Jul 23, 2026</title></rect>
<rect x="799" y="150" width="13" height="13" rx="3" fill="#161b22"><title>0 submissions on Jul 24, 2026</title></rect>
<rect x="799" y="167" width="13" height="13" rx="3" fill="#161b22"><title>0 submissions on Jul 25, 2026</title></rect>
<rect x="816" y="65" width="13" height="13" rx="3" fill="#161b22"><title>0 submissions on Jul 26, 2026</title></rect>
<rect x="816" y="82" width="13" height="13" rx="3" fill="#161b22"><title>0 submissions on Jul 27, 2026</title></rect>
<rect x="816" y="99" width="13" height="13" rx="3" fill="#161b22"><title>0 submissions on Jul 28, 2026</title></rect>
<rect x="816" y="116" width="13" height="13" rx="3" fill="#161b22"><title>0 submissions on Jul 29, 2026</title></rect>
<rect x="816" y="133" width="13" height="13" rx="3" fill="#161b22"><title>0 submissions on Jul 30, 2026</title></rect>
<rect x="816" y="150" width="13" height="13" rx="3" fill="#161b22"><title>0 submissions on Jul 31, 2026</title></rect>
<rect x="816" y="167" width="13" height="13" rx="3" fill="#161b22"><title>0 submissions on Aug 1, 2026</title></rect>
<rect x="833" y="65" width="13" height="13" rx="3" fill="#161b22"><title>0 submissions on Aug 2, 2026</title></rect>
<rect x="833" y="82" width="13" height="13" rx="3" fill="#161b22"><title>0 submissions on Aug 3, 2026</title></rect>
<rect x="833" y="99" width="13" height="13" rx="3" fill="#161b22"><title>0 submissions on Aug 4, 2026</title></rect>
<rect x="833" y="116" width="13" height="13" rx="3" fill="#26a641"><title>6 submissions on Aug 5, 2026</title></rect>
<rect x="833" y="133" width="13" height="13" rx="3" fill="#006d32"><title>3 submissions on Aug 6, 2026</title></rect>
<rect x="833" y="150" width="13" height="13" rx="3" fill="#0e4429"><title>1 submission on Aug 7, 2026</title></rect>
<rect x="833" y="167" width="13" height="13" rx="3" fill="#0e4429"><title>1 submission on Aug 8, 2026</title></rect>
<rect x="850" y="65" width="13" height="13" rx="3" fill="#161b22"><title>0 submissions on Aug 9, 2026</title></rect>
<rect x="850" y="82" width="13" height="13" rx="3" fill="#006d32"><title>4 submissions on Aug 10, 2026</title></rect>
<rect x="850" y="99" width="13" height="13" rx="3" fill="#006d32"><title>3 submissions on Aug 11, 2026</title></rect>
<rect x="850" y="116" width="13" height="13" rx="3" fill="#0e4429"><title>2 submissions on Aug 12, 2026</title></rect>
<rect x="850" y="133" width="13" height="13" rx="3" fill="#161b22"><title>0 submissions on Aug 13, 2026</title></rect>
<rect x="850" y="150" width="13" height="13" rx="3" fill="#161b22"><title>0 submissions on Aug 14, 2026</title></rect>
<rect x="850" y="167" width="13" height="13" rx="3" fill="#161b22"><title>0 submissions on Aug 15, 2026</title></rect>
<rect x="867" y="65" width="13" height="13" rx="3" fill="#161b22"><title>0 submissions on Aug 16, 2026</title></rect>
<rect x="867" y="82" width="13" height="13" rx="3" fill="#161b22"><title>0 submissions on Aug 17, 2026</title></rect>
<rect x="867" y="99" width="13" height="13" rx="3" fill="#161b22"><title>0 submissions on Aug 18, 2026</title></rect>
<rect x="867" y="116" width="13" height="13" rx="3" fill="#161b22"><title>0 submissions on Aug 19, 2026</title></rect>
<rect x="867" y="133" width="13" height="13" rx="3" fill="#161b22"><title>0 submissions on Aug 20, 2026</title></rect>
<rect x="867" y="150" width="13" height="13" rx="3" fill="#161b22"><title>0 submissions on Aug 21, 2026</title></rect>
<rect x="867" y="167" width="13" height="13" rx="3" fill="#161b22"><title>0 submissions on Aug 22, 2026</title></rect>
<rect x="884" y="65" width="13" height="13" rx="3" fill="#0e4429"><title>1 submission on Aug 23, 2026</title></rect>
<rect x="884" y="82" width="13" height="13" rx="3" fill="#39d353"><title>10 submissions on Aug 24, 2026</title></rect>
<rect x="884" y="99" width="13" height="13" rx="3" fill="#006d32"><title>5 submissions on Aug 25, 2026</title></rect>
<rect x="884" y="116" width="13" height="13" rx="3" fill="#006d32"><title>4 submissions on Aug 26, 2026</title></rect>
<rect x="884" y="133" width="13" height="13" rx="3" fill="#0e4429"><title>1 submission on Aug 27, 2026</title></rect>
<rect x="884" y="150" width="13" height="13" rx="3" fill="#006d32"><title>5 submissions on Aug 28, 2026</title></rect>
<rect x="884" y="167" width="13" height="13" rx="3" fill="#006d32"><title>5 submissions on Aug 29, 2026</title></rect>
<rect x="901" y="65" width="13" height="13" rx="3" fill="#0e4429"><title>2 submissions on Aug 30, 2026</title></rect>
<rect x="901" y="82" width="13" height="13" rx="3" fill="#39d353"><title>11 submissions on Aug 31, 2026</title></rect>
<rect x="901" y="99" width="13" height="13" rx="3" fill="#006d32"><title>3 submissions on Sep 1, 2026</title></rect>
<rect x="901" y="116" width="13" height="13" rx="3" fill="#006d32"><title>3 submissions on Sep 2, 2026</title></rect>
<rect x="901" y="133" width="13" height="13" rx="3" fill="#26a641"><title>6 submissions on Sep 3, 2026</title></rect>
<rect x="901" y="150" width="13" height="13" rx="3" fill="#0e4429"><title>2 submissions on Sep 4, 2026</title></rect>
<rect x="901" y="167" width="13" height="13" rx="3" fill="#006d32"><title>3 submissions on Sep 5, 2026</title></rect>
<rect x="918" y="65" width="13" height="13" rx="3" fill="#0e4429"><title>1 submission on Sep 6, 2026</title></rect>
<rect x="918" y="82" width="13" height="13" rx="3" fill="#0e4429"><title>1 submission on Sep 7, 2026</title></rect>
<rect x="918" y="99" width="13" height="13" rx="3" fill="#0e4429"><title>2 submissions on Sep 8, 2026</title></rect>
<text x="20" y="225" fill="#8b8b8b" font-size="11" font-family="Arial">Less</text>
<rect x="53" y="214" width="12" height="12" rx="3" fill="#161b22"/>
<rect x="71" y="214" width="12" height="12" rx="3" fill="#0e4429"/>
<rect x="89" y="214" width="12" height="12" rx="3" fill="#006d32"/>
<rect x="107" y="214" width="12" height="12" rx="3" fill="#26a641"/>
<rect x="125" y="214" width="12" height="12" rx="3" fill="#39d353"/>
<text x="153" y="225" fill="#8b8b8b" font-size="11" font-family="Arial">More</text>
</svg>